<svg width="32" height="32" viewBox="0 0 32 32" fill="none" xmlns="http://www.w3.org/2000/svg">
<rect width="32" height="32" rx="4" fill="white"/>
<path d="M21.8145 2.70366C33.5158 0.969263 26.019 10.8048 22.3929 13.5711C24.8844 15.4591 27.4427 18.1156 28.5328 21.1233C30.5571 26.6339 25.5741 27.4462 21.8145 26.0631C17.6991 24.636 14.073 21.5844 11.6704 18.0058C11.0031 18.0058 10.269 17.8961 9.57935 17.6985C10.9363 21.4746 11.5147 25.3386 11.1366 28.5C11.1366 22.1332 8.06663 15.8104 3.63972 10.5414C2.08252 8.69719 3.68421 7.33602 5.0857 9.11432C6.04227 10.4096 6.90985 11.7488 7.68845 13.132C9.22341 7.95074 16.698 3.42815 21.8145 2.70366ZM20.1461 12.0782C22.4374 10.695 29.4003 3.31838 22.9046 3.97701C19.1673 4.39414 14.6291 7.79706 12.7605 9.99249C15.3632 9.68513 18.0105 10.8048 20.1461 12.0782ZM13.6948 17.8082C15.7859 20.1134 18.6334 22.3528 21.7033 23.1651C23.483 23.6261 25.4406 23.4285 24.7287 20.9258C23.9946 18.6206 22.126 16.6007 20.3018 15.0639C19.7902 15.4152 19.2118 15.7884 18.6334 16.0299C17.0762 16.8862 15.4077 17.5009 13.6948 17.8082Z" fill="#EBA12A"/>
</svg>
