<svg width="32" height="32" viewBox="0 0 32 32" fill="none" xmlns="http://www.w3.org/2000/svg">
<rect width="32" height="32" rx="4" fill="white"/>
<path d="M23.5036 6.01562H7.50472C6.96745 6.01562 6.50977 6.47525 6.50977 7.03479V8.85329C6.50977 9.41283 6.96745 9.87245 7.50472 9.87245H23.5036C24.0608 9.87245 24.4986 9.41283 24.5185 8.85329V7.05477C24.5185 6.47525 24.0608 6.01562 23.5036 6.01562ZM23.5036 16.1073H7.50472C7.24603 16.1073 6.98734 16.2072 6.80825 16.4071C6.60926 16.6069 6.50977 16.8467 6.50977 17.1265V18.945C6.50977 19.5045 6.96745 19.9641 7.50472 19.9641H23.5036C24.0608 19.9641 24.4986 19.5245 24.5185 18.945V17.1265C24.4986 16.547 24.0608 16.1073 23.5036 16.1073ZM16.519 21.1432H7.50472C7.24603 21.1432 6.98734 21.2431 6.80825 21.4429C6.62916 21.6428 6.50977 21.8826 6.50977 22.1623V23.9808C6.50977 24.5404 6.96745 25 7.50472 25H16.4991C17.0563 25 17.4941 24.5404 17.4941 24.0008V22.1823C17.514 21.5828 17.0762 21.1232 16.519 21.1432ZM24.5185 11.0515H7.50472C7.24603 11.0515 6.98734 11.1514 6.80825 11.3512C6.62916 11.5511 6.50977 11.7909 6.50977 12.0706V13.8891C6.50977 14.4487 6.96745 14.9083 7.50472 14.9083H24.4986C25.0557 14.9083 25.4935 14.4487 25.4935 13.8891V12.0706C25.5134 11.5111 25.0557 11.0715 24.5185 11.0515Z" fill="#00C3F7"/>
</svg>
