<svg width="35" height="35" viewBox="0 0 35 35" fill="none" xmlns="http://www.w3.org/2000/svg">
<rect width="35" height="35" rx="4" fill="white"/>
<path d="M4.53798 15.6581C4.53798 15.344 4.79574 15.2231 5.22267 15.2231C5.83487 15.2231 6.60818 15.4084 7.22037 15.7387V13.8457C6.55179 13.5799 5.89126 13.4751 5.22267 13.4751C3.58746 13.4751 2.5 14.329 2.5 15.7548C2.5 17.978 5.56099 17.6236 5.56099 18.5822C5.56099 18.9527 5.23878 19.0735 4.78769 19.0735C4.1191 19.0735 3.26525 18.7997 2.58861 18.4291V20.3463C3.33775 20.6685 4.09494 20.8054 4.78769 20.8054C6.46318 20.8054 7.61508 19.9757 7.61508 18.5338C7.60703 16.1334 4.53798 16.5603 4.53798 15.6581ZM9.98332 11.8641L8.01784 12.283L8.00979 18.7352C8.00979 19.9274 8.90392 20.8054 10.0961 20.8054C10.7566 20.8054 11.2399 20.6846 11.5058 20.5396V18.9044C11.248 19.0091 9.97527 19.3796 9.97527 18.1875V15.3279H11.5058V13.6121H9.97527L9.98332 11.8641ZM14.0109 14.2082L13.8821 13.6121H12.1421V20.6604H14.1559V15.8837C14.6312 15.2634 15.4367 15.3762 15.6864 15.4648V13.6121C15.4287 13.5154 14.4862 13.3382 14.0109 14.2082ZM16.1778 13.6121H18.1997V20.6604H16.1778V13.6121ZM16.1778 12.9999L18.1997 12.5649V10.9297L16.1778 11.3566V12.9999ZM22.4045 13.4751C21.6151 13.4751 21.1076 13.8457 20.8257 14.1035L20.721 13.604H18.9488V22.9964L20.9626 22.5695L20.9707 20.2899C21.2607 20.4993 21.6876 20.7974 22.3965 20.7974C23.8383 20.7974 25.1514 19.6374 25.1514 17.0839C25.1433 14.7479 23.8142 13.4751 22.4045 13.4751ZM21.9212 19.0252C21.4459 19.0252 21.164 18.856 20.9707 18.6466L20.9626 15.6581C21.1721 15.4245 21.462 15.2634 21.9212 15.2634C22.6542 15.2634 23.1617 16.085 23.1617 17.1403C23.1617 18.2197 22.6623 19.0252 21.9212 19.0252ZM31.4989 17.1644C31.4989 15.1023 30.5 13.4751 28.5909 13.4751C26.6738 13.4751 25.5138 15.1023 25.5138 17.1483C25.5138 19.573 26.8832 20.7974 28.8487 20.7974C29.8073 20.7974 30.5323 20.5799 31.08 20.2738V18.6627C30.5323 18.9366 29.9039 19.1058 29.1065 19.1058C28.3251 19.1058 27.6324 18.8319 27.5438 17.8814H31.4828C31.4828 17.7766 31.4989 17.3578 31.4989 17.1644ZM27.5196 16.3992C27.5196 15.489 28.0754 15.1104 28.5829 15.1104C29.0743 15.1104 29.5978 15.489 29.5978 16.3992H27.5196Z" fill="#6772E5"/>
</svg>
