<svg width="35" height="35" viewBox="0 0 35 35" fill="none" xmlns="http://www.w3.org/2000/svg">
<rect width="35" height="35" rx="4" fill="white"/>
<g clip-path="url(#clip0_7210_64681)">
<path d="M15.6895 14.9375C14.0419 14.9375 12.7051 16.2986 12.7051 17.968C12.7051 19.6373 14.0455 20.9984 15.6895 20.9984C17.3335 20.9984 18.6739 19.6373 18.6739 17.968C18.6739 16.2986 17.3371 14.9375 15.6895 14.9375ZM15.6895 19.5642C14.8243 19.5642 14.1199 18.849 14.1199 17.9704C14.1199 17.0918 14.8243 16.3766 15.6895 16.3766C16.5547 16.3766 17.2591 17.0918 17.2591 17.9704C17.2591 18.849 16.5547 19.5642 15.6895 19.5642Z" fill="black"/>
<path d="M25.6167 13.8899C26.1303 13.8899 26.5479 13.4671 26.5479 12.9444C26.5479 12.4216 26.1303 12 25.6167 12C25.1031 12 24.6855 12.4228 24.6855 12.9456C24.6855 13.4683 25.1031 13.8899 25.6167 13.8899Z" fill="black"/>
<path d="M9.5952 14.9394C9.5172 14.9333 9.4428 14.9297 9.366 14.9297C8.646 14.9297 7.9632 15.2294 7.4736 15.7583C6.984 15.2319 6.3036 14.9297 5.5908 14.9297C4.1628 14.9309 3 16.108 3 17.558V20.8749H4.3956V17.5982C4.3956 16.9963 4.8828 16.4419 5.4564 16.3822C5.4972 16.3785 5.5368 16.3761 5.574 16.3761C6.2196 16.3761 6.7464 16.911 6.75 17.5666V20.8736H8.1768V17.5922C8.1768 16.9939 8.6604 16.4394 9.2376 16.3797C9.2784 16.3761 9.318 16.3736 9.3552 16.3736C10.0008 16.3736 10.5312 16.9061 10.5336 17.558V20.8749H11.9604V17.5982C11.9604 16.9342 11.718 16.2932 11.2812 15.7997C10.8456 15.3026 10.2468 14.9967 9.5952 14.9394Z" fill="black"/>
<path d="M20.8702 12.1406H19.4434V20.8823H20.8702V12.1406ZM23.6014 12.1406H22.1746V20.8823H23.6014V12.1406ZM26.3314 15.0834H24.9046V20.8799H26.3314V15.0834Z" fill="black"/>
<path d="M33.0004 17.831C33.0004 17.0621 32.7052 16.3383 32.1724 15.7863C31.636 15.2355 30.928 14.9297 30.1744 14.9297H30.1372C29.356 14.9394 28.6168 15.2538 28.0648 15.818C27.5128 16.3822 27.202 17.1279 27.1936 17.9248C27.184 18.7376 27.4912 19.5065 28.0588 20.0889C28.6264 20.6714 29.3776 20.9931 30.178 20.9931H30.1816C31.2304 20.9931 32.2132 20.4228 32.7508 19.5065L32.8192 19.3895L31.6408 18.8009L31.582 18.8984C31.2844 19.3931 30.7732 19.6856 30.2056 19.6856C29.4796 19.6856 28.8532 19.1945 28.66 18.4951H33.0004V17.831ZM30.118 16.2457C30.7696 16.2457 31.3528 16.6807 31.558 17.2973H28.6816C28.8832 16.6807 29.4664 16.2457 30.118 16.2457Z" fill="black"/>
</g>
<defs>
<clipPath id="clip0_7210_64681">
<rect width="30" height="9" fill="white" transform="translate(3 12)"/>
</clipPath>
</defs>
</svg>
