<svg width="32" height="32" viewBox="0 0 32 32" fill="none" xmlns="http://www.w3.org/2000/svg">
<rect width="32" height="32" rx="4" fill="white"/>
<path d="M3 15C3 16.7216 3.34197 18.4261 4.00606 20.0145C4.67015 21.6029 5.64313 23.0436 6.86852 24.2529C8.09391 25.4622 9.54731 26.4161 11.1443 27.0591C12.7414 27.7022 14.4502 28.0216 16.1717 27.9989C17.8932 27.9761 19.593 27.6117 21.1725 26.9267C22.752 26.2417 24.1797 25.2497 25.3727 24.0085C26.5657 22.7672 27.5003 21.3013 28.1222 19.696C28.7441 18.0906 29.0409 16.3777 28.9955 14.6566L24.6414 14.7717C24.6716 15.9161 24.4742 17.0551 24.0607 18.1226C23.6472 19.1901 23.0257 20.1648 22.2324 20.9902C21.4391 21.8156 20.4898 22.4752 19.4395 22.9307C18.3892 23.3862 17.2589 23.6285 16.1142 23.6436C14.9695 23.6588 13.8332 23.4464 12.7712 23.0188C11.7093 22.5912 10.7428 21.9569 9.92799 21.1528C9.11316 20.3486 8.46617 19.3906 8.02458 18.3344C7.58299 17.2782 7.3556 16.1448 7.3556 15H3Z" fill="#80C962"/>
<circle cx="12.6576" cy="13.1391" r="2.6" fill="#80C962"/>
<circle cx="15.9999" cy="7.19766" r="2.6" fill="#80C962"/>
<circle cx="19.3427" cy="13.1391" r="2.6" fill="#80C962"/>
</svg>
