<svg width="242" height="33" viewBox="0 0 242 33" fill="none" xmlns="http://www.w3.org/2000/svg">
<path d="M62.6319 30.5029H56.8423C56.8423 19.1001 48.6423 9.54864 37.6317 7.05642V5.79726C37.6317 2.59585 35.0787 0 31.93 0C28.7813 0 26.2283 2.59585 26.2283 5.79726V7.05642C15.2177 9.54864 7.01767 19.1001 7.01767 30.5029H1.22802C0.549941 30.5029 0 31.062 0 31.7514C0 32.441 0.549941 33.0001 1.22802 33.0001H62.6319C63.31 33.0001 63.86 32.441 63.86 31.7514C63.86 31.062 63.31 30.5029 62.6319 30.5029Z" fill="#FC8019"/>
<path d="M36.7182 11.9512C36.6157 11.9512 36.5154 11.9814 36.4488 12.0398C36.3476 12.1286 36.1939 12.3061 35.9855 12.6602C35.824 12.8582 35.6946 13.0701 35.5893 13.2906C35.3753 13.7391 35.2062 14.1947 35.0671 14.6553C35.0671 14.6561 35.0664 14.6568 35.0664 14.6574C34.0129 17.3639 33.7233 26.578 33.7233 26.578H37.3388L37.0826 12.2187C37.0798 12.0701 36.9177 11.9512 36.7182 11.9512Z" fill="white"/>
<path d="M37.3094 28.0029H34.194V32.9974H37.3094V28.0029Z" fill="white"/>
<path d="M31.1761 14.748C31.127 14.4783 30.9642 14.2395 30.6934 14.0466C30.5313 13.9319 30.3331 13.8164 30.0963 13.8692C29.8442 13.9262 29.9134 14.1157 29.9059 14.253C29.8456 15.3424 29.8033 16.4318 29.7369 17.5205C29.7216 17.767 29.8664 18.16 29.3704 18.1733C28.835 18.1881 28.93 17.7705 28.9008 17.5171C28.7782 16.4459 28.6985 15.3719 28.5884 14.2995C28.5656 14.0769 28.6128 13.7748 28.1334 13.7734C27.695 13.7727 27.7157 14.0544 27.6929 14.2656C27.5737 15.3515 27.4782 16.4396 27.3549 17.5254C27.3259 17.784 27.4262 18.1895 26.8812 18.1691C26.3914 18.1515 26.519 17.765 26.5065 17.5163C26.4551 16.4566 26.4275 15.3958 26.3811 14.3361C26.3742 14.1839 26.4393 13.9741 26.1539 13.9226C25.8797 13.8734 25.7009 14.0304 25.561 14.179C25.3733 14.3782 25.3075 14.6093 25.2597 14.8453C25.0138 16.0473 25.0513 17.2593 25.1392 18.4629C25.2139 19.491 25.6518 20.4404 27.0439 20.9868C27.2835 21.0811 27.393 21.2297 27.3632 21.4275C27.3445 21.5923 27.3293 21.7579 27.3161 21.9227H27.3154L27.3106 21.9973C27.2981 22.1628 27.2878 22.3284 27.2787 22.4938L27.0855 25.5023V32.9946H29.5706V25.5023L29.3739 21.9945C29.3732 21.7628 29.3711 21.5312 29.376 21.3001C29.3794 21.1445 29.4362 21.0544 29.5734 20.9636C30.523 20.472 31.1387 19.8044 31.2446 18.9797C31.4268 17.5719 31.4337 16.1565 31.1761 14.748Z" fill="white"/>
<path d="M79.1 24L75.888 18.17H74.986V24H71.224V8.556H77.538C78.7553 8.556 79.7893 8.76867 80.64 9.194C81.5053 9.61933 82.1507 10.206 82.576 10.954C83.0013 11.6873 83.214 12.5087 83.214 13.418C83.214 14.4447 82.9207 15.3613 82.334 16.168C81.762 16.9747 80.9113 17.5467 79.782 17.884L83.346 24H79.1ZM74.986 15.508H77.318C78.0073 15.508 78.5207 15.3393 78.858 15.002C79.21 14.6647 79.386 14.188 79.386 13.572C79.386 12.9853 79.21 12.5233 78.858 12.186C78.5207 11.8487 78.0073 11.68 77.318 11.68H74.986V15.508ZM96.7075 17.664C96.7075 18.016 96.6855 18.3827 96.6415 18.764H88.1275C88.1862 19.5267 88.4282 20.1133 88.8535 20.524C89.2935 20.92 89.8289 21.118 90.4595 21.118C91.3982 21.118 92.0509 20.722 92.4175 19.93H96.4215C96.2162 20.7367 95.8422 21.4627 95.2995 22.108C94.7715 22.7533 94.1042 23.2593 93.2975 23.626C92.4909 23.9927 91.5889 24.176 90.5915 24.176C89.3889 24.176 88.3182 23.9193 87.3795 23.406C86.4409 22.8927 85.7075 22.1593 85.1795 21.206C84.6515 20.2527 84.3875 19.138 84.3875 17.862C84.3875 16.586 84.6442 15.4713 85.1575 14.518C85.6855 13.5647 86.4189 12.8313 87.3575 12.318C88.2962 11.8047 89.3742 11.548 90.5915 11.548C91.7795 11.548 92.8355 11.7973 93.7595 12.296C94.6835 12.7947 95.4022 13.506 95.9155 14.43C96.4435 15.354 96.7075 16.432 96.7075 17.664ZM92.8575 16.674C92.8575 16.0287 92.6375 15.5153 92.1975 15.134C91.7575 14.7527 91.2075 14.562 90.5475 14.562C89.9169 14.562 89.3815 14.7453 88.9415 15.112C88.5162 15.4787 88.2522 15.9993 88.1495 16.674H92.8575ZM103.246 24.176C102.176 24.176 101.222 23.9927 100.386 23.626C99.5502 23.2593 98.8902 22.7607 98.4062 22.13C97.9222 21.4847 97.6509 20.766 97.5922 19.974H101.31C101.354 20.3993 101.552 20.744 101.904 21.008C102.256 21.272 102.689 21.404 103.202 21.404C103.672 21.404 104.031 21.316 104.28 21.14C104.544 20.9493 104.676 20.7073 104.676 20.414C104.676 20.062 104.493 19.8053 104.126 19.644C103.76 19.468 103.166 19.2773 102.344 19.072C101.464 18.8667 100.731 18.654 100.144 18.434C99.5575 18.1993 99.0515 17.84 98.6262 17.356C98.2009 16.8573 97.9882 16.19 97.9882 15.354C97.9882 14.65 98.1789 14.012 98.5602 13.44C98.9562 12.8533 99.5282 12.3913 100.276 12.054C101.039 11.7167 101.941 11.548 102.982 11.548C104.522 11.548 105.732 11.9293 106.612 12.692C107.507 13.4547 108.02 14.4667 108.152 15.728H104.676C104.618 15.3027 104.427 14.9653 104.104 14.716C103.796 14.4667 103.386 14.342 102.872 14.342C102.432 14.342 102.095 14.43 101.86 14.606C101.626 14.7673 101.508 14.9947 101.508 15.288C101.508 15.64 101.692 15.904 102.058 16.08C102.44 16.256 103.026 16.432 103.818 16.608C104.728 16.8427 105.468 17.0773 106.04 17.312C106.612 17.532 107.111 17.8987 107.536 18.412C107.976 18.9107 108.204 19.5853 108.218 20.436C108.218 21.1547 108.013 21.8 107.602 22.372C107.206 22.9293 106.627 23.3693 105.864 23.692C105.116 24.0147 104.244 24.176 103.246 24.176ZM116.922 20.81V24H115.008C113.644 24 112.58 23.67 111.818 23.01C111.055 22.3353 110.674 21.2427 110.674 19.732V14.848H109.178V11.724H110.674V8.732H114.436V11.724H116.9V14.848H114.436V19.776C114.436 20.1427 114.524 20.4067 114.7 20.568C114.876 20.7293 115.169 20.81 115.58 20.81H116.922ZM117.829 17.84C117.829 16.5787 118.064 15.4713 118.533 14.518C119.017 13.5647 119.67 12.8313 120.491 12.318C121.313 11.8047 122.229 11.548 123.241 11.548C124.107 11.548 124.862 11.724 125.507 12.076C126.167 12.428 126.673 12.89 127.025 13.462V11.724H130.787V24H127.025V22.262C126.659 22.834 126.145 23.296 125.485 23.648C124.84 24 124.085 24.176 123.219 24.176C122.222 24.176 121.313 23.9193 120.491 23.406C119.67 22.878 119.017 22.1373 118.533 21.184C118.064 20.216 117.829 19.1013 117.829 17.84ZM127.025 17.862C127.025 16.9233 126.761 16.1827 126.233 15.64C125.72 15.0973 125.089 14.826 124.341 14.826C123.593 14.826 122.955 15.0973 122.427 15.64C121.914 16.168 121.657 16.9013 121.657 17.84C121.657 18.7787 121.914 19.5267 122.427 20.084C122.955 20.6267 123.593 20.898 124.341 20.898C125.089 20.898 125.72 20.6267 126.233 20.084C126.761 19.5413 127.025 18.8007 127.025 17.862ZM145.191 11.724V24H141.429V22.328C141.048 22.8707 140.527 23.3107 139.867 23.648C139.222 23.9707 138.503 24.132 137.711 24.132C136.772 24.132 135.944 23.9267 135.225 23.516C134.506 23.0907 133.949 22.482 133.553 21.69C133.157 20.898 132.959 19.9667 132.959 18.896V11.724H136.699V18.39C136.699 19.2113 136.912 19.8493 137.337 20.304C137.762 20.7587 138.334 20.986 139.053 20.986C139.786 20.986 140.366 20.7587 140.791 20.304C141.216 19.8493 141.429 19.2113 141.429 18.39V11.724H145.191ZM151.215 13.77C151.655 13.0953 152.205 12.5673 152.865 12.186C153.525 11.79 154.258 11.592 155.065 11.592V15.574H154.031C153.092 15.574 152.388 15.7793 151.919 16.19C151.45 16.586 151.215 17.29 151.215 18.302V24H147.453V11.724H151.215V13.77ZM155.675 17.84C155.675 16.5787 155.91 15.4713 156.379 14.518C156.863 13.5647 157.516 12.8313 158.337 12.318C159.159 11.8047 160.075 11.548 161.087 11.548C161.953 11.548 162.708 11.724 163.353 12.076C164.013 12.428 164.519 12.89 164.871 13.462V11.724H168.633V24H164.871V22.262C164.505 22.834 163.991 23.296 163.331 23.648C162.686 24 161.931 24.176 161.065 24.176C160.068 24.176 159.159 23.9193 158.337 23.406C157.516 22.878 156.863 22.1373 156.379 21.184C155.91 20.216 155.675 19.1013 155.675 17.84ZM164.871 17.862C164.871 16.9233 164.607 16.1827 164.079 15.64C163.566 15.0973 162.935 14.826 162.187 14.826C161.439 14.826 160.801 15.0973 160.273 15.64C159.76 16.168 159.503 16.9013 159.503 17.84C159.503 18.7787 159.76 19.5267 160.273 20.084C160.801 20.6267 161.439 20.898 162.187 20.898C162.935 20.898 163.566 20.6267 164.079 20.084C164.607 19.5413 164.871 18.8007 164.871 17.862ZM178.395 11.592C179.832 11.592 180.976 12.0613 181.827 13C182.692 13.924 183.125 15.2 183.125 16.828V24H179.385V17.334C179.385 16.5127 179.172 15.8747 178.747 15.42C178.322 14.9653 177.75 14.738 177.031 14.738C176.312 14.738 175.74 14.9653 175.315 15.42C174.89 15.8747 174.677 16.5127 174.677 17.334V24H170.915V11.724H174.677V13.352C175.058 12.8093 175.572 12.384 176.217 12.076C176.862 11.7533 177.588 11.592 178.395 11.592ZM192.141 20.81V24H190.227C188.863 24 187.8 23.67 187.037 23.01C186.274 22.3353 185.893 21.2427 185.893 19.732V14.848H184.397V11.724H185.893V8.732H189.655V11.724H192.119V14.848H189.655V19.776C189.655 20.1427 189.743 20.4067 189.919 20.568C190.095 20.7293 190.388 20.81 190.799 20.81H192.141ZM207.633 21.272H201.869L200.945 24H197.007L202.595 8.556H206.951L212.539 24H208.557L207.633 21.272ZM206.665 18.368L204.751 12.714L202.859 18.368H206.665ZM217.561 13.462C217.928 12.89 218.434 12.428 219.079 12.076C219.725 11.724 220.48 11.548 221.345 11.548C222.357 11.548 223.274 11.8047 224.095 12.318C224.917 12.8313 225.562 13.5647 226.031 14.518C226.515 15.4713 226.757 16.5787 226.757 17.84C226.757 19.1013 226.515 20.216 226.031 21.184C225.562 22.1373 224.917 22.878 224.095 23.406C223.274 23.9193 222.357 24.176 221.345 24.176C220.495 24.176 219.739 24 219.079 23.648C218.434 23.296 217.928 22.8413 217.561 22.284V29.852H213.799V11.724H217.561V13.462ZM222.929 17.84C222.929 16.9013 222.665 16.168 222.137 15.64C221.624 15.0973 220.986 14.826 220.223 14.826C219.475 14.826 218.837 15.0973 218.309 15.64C217.796 16.1827 217.539 16.9233 217.539 17.862C217.539 18.8007 217.796 19.5413 218.309 20.084C218.837 20.6267 219.475 20.898 220.223 20.898C220.971 20.898 221.609 20.6267 222.137 20.084C222.665 19.5267 222.929 18.7787 222.929 17.84ZM232.053 13.462C232.42 12.89 232.926 12.428 233.571 12.076C234.216 11.724 234.972 11.548 235.837 11.548C236.849 11.548 237.766 11.8047 238.587 12.318C239.408 12.8313 240.054 13.5647 240.523 14.518C241.007 15.4713 241.249 16.5787 241.249 17.84C241.249 19.1013 241.007 20.216 240.523 21.184C240.054 22.1373 239.408 22.878 238.587 23.406C237.766 23.9193 236.849 24.176 235.837 24.176C234.986 24.176 234.231 24 233.571 23.648C232.926 23.296 232.42 22.8413 232.053 22.284V29.852H228.291V11.724H232.053V13.462ZM237.421 17.84C237.421 16.9013 237.157 16.168 236.629 15.64C236.116 15.0973 235.478 14.826 234.715 14.826C233.967 14.826 233.329 15.0973 232.801 15.64C232.288 16.1827 232.031 16.9233 232.031 17.862C232.031 18.8007 232.288 19.5413 232.801 20.084C233.329 20.6267 233.967 20.898 234.715 20.898C235.463 20.898 236.101 20.6267 236.629 20.084C237.157 19.5267 237.421 18.7787 237.421 17.84Z" fill="#1C1C1C"/>
</svg>
