<svg width="289" height="45" viewBox="0 0 289 45" fill="none" xmlns="http://www.w3.org/2000/svg">
<path d="M84.9928 41.3931H77.1362C77.1362 25.9192 66.0085 12.9577 51.067 9.57571V7.86701C51.067 3.52262 47.6025 0 43.3296 0C39.0568 0 35.5923 3.52262 35.5923 7.86701V9.57571C20.6507 12.9577 9.52313 25.9192 9.52313 41.3931H1.66645C0.746282 41.3931 0 42.1518 0 43.0873C0 44.0231 0.746282 44.7818 1.66645 44.7818H84.9928C85.913 44.7818 86.6593 44.0231 86.6593 43.0873C86.6593 42.1518 85.913 41.3931 84.9928 41.3931Z" fill="#FC8019"/>
<path d="M49.8278 16.2168C49.6887 16.2168 49.5525 16.2579 49.4622 16.3371C49.3249 16.4576 49.1162 16.6984 48.8335 17.179C48.6143 17.4477 48.4387 17.7352 48.2958 18.0345C48.0053 18.6431 47.776 19.2614 47.5871 19.8863C47.5871 19.8874 47.5862 19.8884 47.5862 19.8893C46.1566 23.562 45.7635 36.0657 45.7635 36.0657H50.6699L50.3222 16.5798C50.3184 16.3782 50.0984 16.2168 49.8278 16.2168Z" fill="white"/>
<path d="M50.6295 38H46.4019V44.7776H50.6295V38Z" fill="white"/>
<path d="M42.3066 20.0119C42.2399 19.646 42.019 19.322 41.6515 19.0602C41.4316 18.9045 41.1627 18.7477 40.8413 18.8194C40.4992 18.8967 40.5931 19.1539 40.5829 19.3402C40.5011 20.8186 40.4436 22.297 40.3535 23.7743C40.3328 24.1088 40.5293 24.6422 39.8562 24.6602C39.1297 24.6803 39.2586 24.1136 39.219 23.7697C39.0527 22.316 38.9445 20.8586 38.795 19.4033C38.7641 19.1013 38.8281 18.6913 38.1776 18.6895C37.5827 18.6884 37.6108 19.0707 37.5798 19.3574C37.4181 20.8309 37.2884 22.3074 37.1211 23.781C37.0817 24.1318 37.2179 24.6822 36.4783 24.6545C35.8137 24.6306 35.9868 24.1061 35.9699 23.7686C35.9001 22.3305 35.8627 20.8911 35.7997 19.453C35.7903 19.2465 35.8786 18.9617 35.4913 18.8919C35.1193 18.8251 34.8766 19.0382 34.6868 19.2398C34.4321 19.5102 34.3428 19.8237 34.2779 20.1439C33.9442 21.7751 33.9951 23.4199 34.1144 25.0531C34.2158 26.4483 34.81 27.7366 36.6991 28.4781C37.0243 28.6062 37.1728 28.8078 37.1324 29.0762C37.1071 29.2999 37.0863 29.5245 37.0685 29.7482H37.0675L37.061 29.8494C37.0441 30.074 37.0301 30.2987 37.0178 30.5232L36.7555 34.6058V44.7729H40.1278V34.6058L39.861 29.8456C39.86 29.5312 39.8572 29.2169 39.8639 28.9033C39.8685 28.6921 39.9455 28.5699 40.1317 28.4467C41.4203 27.7796 42.2559 26.8736 42.3996 25.7544C42.6468 23.8441 42.6562 21.9233 42.3066 20.0119Z" fill="white"/>
<path d="M103.16 31.3906L99.5095 24.7656H98.4845V31.3906H94.2095V13.8406H101.385C102.768 13.8406 103.943 14.0823 104.91 14.5656C105.893 15.049 106.626 15.7156 107.11 16.5656C107.593 17.399 107.835 18.3323 107.835 19.3656C107.835 20.5323 107.501 21.574 106.835 22.4906C106.185 23.4073 105.218 24.0573 103.935 24.4406L107.985 31.3906H103.16ZM98.4845 21.7406H101.135C101.918 21.7406 102.501 21.549 102.885 21.1656C103.285 20.7823 103.485 20.2406 103.485 19.5406C103.485 18.874 103.285 18.349 102.885 17.9656C102.501 17.5823 101.918 17.3906 101.135 17.3906H98.4845V21.7406ZM123.168 24.1906C123.168 24.5906 123.143 25.0073 123.093 25.4406H113.418C113.485 26.3073 113.76 26.974 114.243 27.4406C114.743 27.8906 115.351 28.1156 116.068 28.1156C117.135 28.1156 117.876 27.6656 118.293 26.7656H122.843C122.61 27.6823 122.185 28.5073 121.568 29.2406C120.968 29.974 120.21 30.549 119.293 30.9656C118.376 31.3823 117.351 31.5906 116.218 31.5906C114.851 31.5906 113.635 31.299 112.568 30.7156C111.501 30.1323 110.668 29.299 110.068 28.2156C109.468 27.1323 109.168 25.8656 109.168 24.4156C109.168 22.9656 109.46 21.699 110.043 20.6156C110.643 19.5323 111.476 18.699 112.543 18.1156C113.61 17.5323 114.835 17.2406 116.218 17.2406C117.568 17.2406 118.768 17.524 119.818 18.0906C120.868 18.6573 121.685 19.4656 122.268 20.5156C122.868 21.5656 123.168 22.7906 123.168 24.1906ZM118.793 23.0656C118.793 22.3323 118.543 21.749 118.043 21.3156C117.543 20.8823 116.918 20.6656 116.168 20.6656C115.451 20.6656 114.843 20.874 114.343 21.2906C113.86 21.7073 113.56 22.299 113.443 23.0656H118.793ZM130.598 31.5906C129.382 31.5906 128.298 31.3823 127.348 30.9656C126.398 30.549 125.648 29.9823 125.098 29.2656C124.548 28.5323 124.24 27.7156 124.173 26.8156H128.398C128.448 27.299 128.673 27.6906 129.073 27.9906C129.473 28.2906 129.965 28.4406 130.548 28.4406C131.082 28.4406 131.49 28.3406 131.773 28.1406C132.073 27.924 132.223 27.649 132.223 27.3156C132.223 26.9156 132.015 26.624 131.598 26.4406C131.182 26.2406 130.507 26.024 129.573 25.7906C128.573 25.5573 127.74 25.3156 127.073 25.0656C126.407 24.799 125.832 24.3906 125.348 23.8406C124.865 23.274 124.623 22.5156 124.623 21.5656C124.623 20.7656 124.84 20.0406 125.273 19.3906C125.723 18.724 126.373 18.199 127.223 17.8156C128.09 17.4323 129.115 17.2406 130.298 17.2406C132.048 17.2406 133.423 17.674 134.423 18.5406C135.44 19.4073 136.023 20.5573 136.173 21.9906H132.223C132.157 21.5073 131.94 21.124 131.573 20.8406C131.223 20.5573 130.757 20.4156 130.173 20.4156C129.673 20.4156 129.29 20.5156 129.023 20.7156C128.757 20.899 128.623 21.1573 128.623 21.4906C128.623 21.8906 128.832 22.1906 129.248 22.3906C129.682 22.5906 130.348 22.7906 131.248 22.9906C132.282 23.2573 133.123 23.524 133.773 23.7906C134.423 24.0406 134.99 24.4573 135.473 25.0406C135.973 25.6073 136.232 26.374 136.248 27.3406C136.248 28.1573 136.015 28.8906 135.548 29.5406C135.098 30.174 134.44 30.674 133.573 31.0406C132.723 31.4073 131.732 31.5906 130.598 31.5906ZM146.139 27.7656V31.3906H143.964C142.414 31.3906 141.206 31.0156 140.339 30.2656C139.472 29.499 139.039 28.2573 139.039 26.5406V20.9906H137.339V17.4406H139.039V14.0406H143.314V17.4406H146.114V20.9906H143.314V26.5906C143.314 27.0073 143.414 27.3073 143.614 27.4906C143.814 27.674 144.147 27.7656 144.614 27.7656H146.139ZM147.17 24.3906C147.17 22.9573 147.437 21.699 147.97 20.6156C148.52 19.5323 149.262 18.699 150.195 18.1156C151.128 17.5323 152.17 17.2406 153.32 17.2406C154.303 17.2406 155.162 17.4406 155.895 17.8406C156.645 18.2406 157.22 18.7656 157.62 19.4156V17.4406H161.895V31.3906H157.62V29.4156C157.203 30.0656 156.62 30.5906 155.87 30.9906C155.137 31.3906 154.278 31.5906 153.295 31.5906C152.162 31.5906 151.128 31.299 150.195 30.7156C149.262 30.1156 148.52 29.274 147.97 28.1906C147.437 27.0906 147.17 25.824 147.17 24.3906ZM157.62 24.4156C157.62 23.349 157.32 22.5073 156.72 21.8906C156.137 21.274 155.42 20.9656 154.57 20.9656C153.72 20.9656 152.995 21.274 152.395 21.8906C151.812 22.4906 151.52 23.324 151.52 24.3906C151.52 25.4573 151.812 26.3073 152.395 26.9406C152.995 27.5573 153.72 27.8656 154.57 27.8656C155.42 27.8656 156.137 27.5573 156.72 26.9406C157.32 26.324 157.62 25.4823 157.62 24.4156ZM178.263 17.4406V31.3906H173.988V29.4906C173.555 30.1073 172.963 30.6073 172.213 30.9906C171.48 31.3573 170.663 31.5406 169.763 31.5406C168.696 31.5406 167.755 31.3073 166.938 30.8406C166.121 30.3573 165.488 29.6656 165.038 28.7656C164.588 27.8656 164.363 26.8073 164.363 25.5906V17.4406H168.613V25.0156C168.613 25.949 168.855 26.674 169.338 27.1906C169.821 27.7073 170.471 27.9656 171.288 27.9656C172.121 27.9656 172.78 27.7073 173.263 27.1906C173.746 26.674 173.988 25.949 173.988 25.0156V17.4406H178.263ZM185.109 19.7656C185.609 18.999 186.234 18.399 186.984 17.9656C187.734 17.5156 188.567 17.2906 189.484 17.2906V21.8156H188.309C187.242 21.8156 186.442 22.049 185.909 22.5156C185.375 22.9656 185.109 23.7656 185.109 24.9156V31.3906H180.834V17.4406H185.109V19.7656ZM190.177 24.3906C190.177 22.9573 190.444 21.699 190.977 20.6156C191.527 19.5323 192.269 18.699 193.202 18.1156C194.135 17.5323 195.177 17.2406 196.327 17.2406C197.31 17.2406 198.169 17.4406 198.902 17.8406C199.652 18.2406 200.227 18.7656 200.627 19.4156V17.4406H204.902V31.3906H200.627V29.4156C200.21 30.0656 199.627 30.5906 198.877 30.9906C198.144 31.3906 197.285 31.5906 196.302 31.5906C195.169 31.5906 194.135 31.299 193.202 30.7156C192.269 30.1156 191.527 29.274 190.977 28.1906C190.444 27.0906 190.177 25.824 190.177 24.3906ZM200.627 24.4156C200.627 23.349 200.327 22.5073 199.727 21.8906C199.144 21.274 198.427 20.9656 197.577 20.9656C196.727 20.9656 196.002 21.274 195.402 21.8906C194.819 22.4906 194.527 23.324 194.527 24.3906C194.527 25.4573 194.819 26.3073 195.402 26.9406C196.002 27.5573 196.727 27.8656 197.577 27.8656C198.427 27.8656 199.144 27.5573 199.727 26.9406C200.327 26.324 200.627 25.4823 200.627 24.4156ZM215.995 17.2906C217.628 17.2906 218.928 17.824 219.895 18.8906C220.878 19.9406 221.37 21.3906 221.37 23.2406V31.3906H217.12V23.8156C217.12 22.8823 216.878 22.1573 216.395 21.6406C215.911 21.124 215.261 20.8656 214.445 20.8656C213.628 20.8656 212.978 21.124 212.495 21.6406C212.011 22.1573 211.77 22.8823 211.77 23.8156V31.3906H207.495V17.4406H211.77V19.2906C212.203 18.674 212.786 18.1906 213.52 17.8406C214.253 17.474 215.078 17.2906 215.995 17.2906ZM231.615 27.7656V31.3906H229.44C227.89 31.3906 226.682 31.0156 225.815 30.2656C224.949 29.499 224.515 28.2573 224.515 26.5406V20.9906H222.815V17.4406H224.515V14.0406H228.79V17.4406H231.59V20.9906H228.79V26.5906C228.79 27.0073 228.89 27.3073 229.09 27.4906C229.29 27.674 229.624 27.7656 230.09 27.7656H231.615ZM249.22 28.2906H242.67L241.62 31.3906H237.145L243.495 13.8406H248.445L254.795 31.3906H250.27L249.22 28.2906ZM248.12 24.9906L245.945 18.5656L243.795 24.9906H248.12ZM260.502 19.4156C260.919 18.7656 261.494 18.2406 262.227 17.8406C262.96 17.4406 263.819 17.2406 264.802 17.2406C265.952 17.2406 266.994 17.5323 267.927 18.1156C268.86 18.699 269.594 19.5323 270.127 20.6156C270.677 21.699 270.952 22.9573 270.952 24.3906C270.952 25.824 270.677 27.0906 270.127 28.1906C269.594 29.274 268.86 30.1156 267.927 30.7156C266.994 31.299 265.952 31.5906 264.802 31.5906C263.835 31.5906 262.977 31.3906 262.227 30.9906C261.494 30.5906 260.919 30.074 260.502 29.4406V38.0406H256.227V17.4406H260.502V19.4156ZM266.602 24.3906C266.602 23.324 266.302 22.4906 265.702 21.8906C265.119 21.274 264.394 20.9656 263.527 20.9656C262.677 20.9656 261.952 21.274 261.352 21.8906C260.769 22.5073 260.477 23.349 260.477 24.4156C260.477 25.4823 260.769 26.324 261.352 26.9406C261.952 27.5573 262.677 27.8656 263.527 27.8656C264.377 27.8656 265.102 27.5573 265.702 26.9406C266.302 26.3073 266.602 25.4573 266.602 24.3906ZM276.97 19.4156C277.387 18.7656 277.962 18.2406 278.695 17.8406C279.428 17.4406 280.287 17.2406 281.27 17.2406C282.42 17.2406 283.462 17.5323 284.395 18.1156C285.328 18.699 286.062 19.5323 286.595 20.6156C287.145 21.699 287.42 22.9573 287.42 24.3906C287.42 25.824 287.145 27.0906 286.595 28.1906C286.062 29.274 285.328 30.1156 284.395 30.7156C283.462 31.299 282.42 31.5906 281.27 31.5906C280.303 31.5906 279.445 31.3906 278.695 30.9906C277.962 30.5906 277.387 30.074 276.97 29.4406V38.0406H272.695V17.4406H276.97V19.4156ZM283.07 24.3906C283.07 23.324 282.77 22.4906 282.17 21.8906C281.587 21.274 280.862 20.9656 279.995 20.9656C279.145 20.9656 278.42 21.274 277.82 21.8906C277.237 22.5073 276.945 23.349 276.945 24.4156C276.945 25.4823 277.237 26.324 277.82 26.9406C278.42 27.5573 279.145 27.8656 279.995 27.8656C280.845 27.8656 281.57 27.5573 282.17 26.9406C282.77 26.3073 283.07 25.4573 283.07 24.3906Z" fill="white"/>
</svg>
